<svg xmlns="http://www.w3.org/2000/svg" viewBox="0 0 1200 760" width="1200" height="760">
  <style>
    text { font-family: 'Helvetica Neue', Helvetica, Arial, 'PingFang SC', 'Microsoft YaHei', 'SimHei', sans-serif; }
    .title { font-size: 24px; font-weight: 700; fill: #111827; }
    .subtitle { font-size: 13px; fill: #6b7280; }
    .lane-label { font-size: 12px; font-weight: 700; letter-spacing: .06em; fill: #374151; }
    .node-title { font-size: 15px; font-weight: 700; fill: #111827; }
    .node-sub { font-size: 12px; fill: #4b5563; }
    .small { font-size: 11px; fill: #6b7280; }
  </style>
  <defs>
    <marker id="arrow-blue" markerWidth="10" markerHeight="7" refX="9" refY="3.5" orient="auto">
      <polygon points="0 0, 10 3.5, 0 7" fill="#2563eb"/>
    </marker>
    <marker id="arrow-green" markerWidth="10" markerHeight="7" refX="9" refY="3.5" orient="auto">
      <polygon points="0 0, 10 3.5, 0 7" fill="#16a34a"/>
    </marker>
    <marker id="arrow-orange" markerWidth="10" markerHeight="7" refX="9" refY="3.5" orient="auto">
      <polygon points="0 0, 10 3.5, 0 7" fill="#ea580c"/>
    </marker>
    <marker id="arrow-purple" markerWidth="10" markerHeight="7" refX="9" refY="3.5" orient="auto">
      <polygon points="0 0, 10 3.5, 0 7" fill="#9333ea"/>
    </marker>
  </defs>
  <rect width="1200" height="760" fill="#ffffff"/>
  <text x="600" y="42" text-anchor="middle" class="title">pid-parse 下一阶段开发路线图</text>
  <text x="600" y="66" text-anchor="middle" class="subtitle">Probe/Decode 分层 + Byte Audit 证据门 + 下游稳定契约</text>
  <rect x="40" y="100" width="1120" height="120" rx="12" fill="#eff6ff" stroke="#bfdbfe" stroke-width="1.5" stroke-dasharray="7,4"/>
  <text x="56" y="124" class="lane-label">现状基线</text>
  <rect x="40" y="250" width="1120" height="120" rx="12" fill="#f0fdf4" stroke="#bbf7d0" stroke-width="1.5" stroke-dasharray="7,4"/>
  <text x="56" y="274" class="lane-label">解析补齐</text>
  <rect x="40" y="400" width="1120" height="120" rx="12" fill="#fff7ed" stroke="#fed7aa" stroke-width="1.5" stroke-dasharray="7,4"/>
  <text x="56" y="424" class="lane-label">产品化契约</text>
  <rect x="40" y="550" width="1120" height="110" rx="12" fill="#faf5ff" stroke="#e9d5ff" stroke-width="1.5" stroke-dasharray="7,4"/>
  <text x="56" y="574" class="lane-label">交付验证</text>
  <rect x="90" y="135" width="190" height="64" rx="10" fill="#ffffff" stroke="#bfdbfe" stroke-width="1.5"/>
  <text x="185.0" y="163" text-anchor="middle" class="node-title">当前基线</text>
  <text x="185.0" y="185" text-anchor="middle" class="node-sub">.pid 读取 + Writer</text>
  <text x="185.0" y="203" text-anchor="middle" class="node-sub">MDF Publish 主链</text>
  <rect x="360" y="135" width="190" height="64" rx="10" fill="#ffffff" stroke="#bfdbfe" stroke-width="1.5"/>
  <text x="455.0" y="163" text-anchor="middle" class="node-title">证据体系</text>
  <text x="455.0" y="185" text-anchor="middle" class="node-sub">coverage</text>
  <text x="455.0" y="203" text-anchor="middle" class="node-sub">byte-audit / fixture</text>
  <rect x="630" y="135" width="190" height="64" rx="10" fill="#ffffff" stroke="#bfdbfe" stroke-width="1.5"/>
  <text x="725.0" y="163" text-anchor="middle" class="node-title">能力缺口</text>
  <text x="725.0" y="185" text-anchor="middle" class="node-sub">PSM / Sheet</text>
  <text x="725.0" y="203" text-anchor="middle" class="node-sub">canonical graph</text>
  <rect x="900" y="135" width="190" height="64" rx="10" fill="#ffffff" stroke="#bfdbfe" stroke-width="1.5"/>
  <text x="995.0" y="163" text-anchor="middle" class="node-title">路线选择</text>
  <text x="995.0" y="185" text-anchor="middle" class="node-sub">先事实层</text>
  <text x="995.0" y="203" text-anchor="middle" class="node-sub">后语义契约</text>
  <rect x="90" y="285" width="190" height="64" rx="10" fill="#ffffff" stroke="#bbf7d0" stroke-width="1.5"/>
  <text x="185.0" y="313" text-anchor="middle" class="node-title">W1 PSM 补齐</text>
  <text x="185.0" y="335" text-anchor="middle" class="node-sub">cluster table</text>
  <text x="185.0" y="353" text-anchor="middle" class="node-sub">segment table</text>
  <rect x="360" y="285" width="190" height="64" rx="10" fill="#ffffff" stroke="#bbf7d0" stroke-width="1.5"/>
  <text x="455.0" y="313" text-anchor="middle" class="node-title">W2 Sheet DTO</text>
  <text x="455.0" y="335" text-anchor="middle" class="node-sub">text / endpoint</text>
  <text x="455.0" y="353" text-anchor="middle" class="node-sub">coordinate hint</text>
  <rect x="630" y="285" width="190" height="64" rx="10" fill="#ffffff" stroke="#bbf7d0" stroke-width="1.5"/>
  <text x="725.0" y="313" text-anchor="middle" class="node-title">Trace 注册</text>
  <text x="725.0" y="335" text-anchor="middle" class="node-sub">decoded/probed</text>
  <text x="725.0" y="353" text-anchor="middle" class="node-sub">leftover 降低</text>
  <rect x="900" y="285" width="190" height="64" rx="10" fill="#ffffff" stroke="#bbf7d0" stroke-width="1.5"/>
  <text x="995.0" y="313" text-anchor="middle" class="node-title">Fixture 回归</text>
  <text x="995.0" y="335" text-anchor="middle" class="node-sub">synthetic hard</text>
  <text x="995.0" y="353" text-anchor="middle" class="node-sub">real soft/hard</text>
  <rect x="90" y="435" width="190" height="64" rx="10" fill="#ffffff" stroke="#fed7aa" stroke-width="1.5"/>
  <text x="185.0" y="463" text-anchor="middle" class="node-title">W3 Canonical Graph</text>
  <text x="185.0" y="485" text-anchor="middle" class="node-sub">object / rel</text>
  <text x="185.0" y="503" text-anchor="middle" class="node-sub">endpoint / symbol</text>
  <rect x="360" y="435" width="190" height="64" rx="10" fill="#ffffff" stroke="#fed7aa" stroke-width="1.5"/>
  <text x="455.0" y="463" text-anchor="middle" class="node-title">Import Contract</text>
  <text x="455.0" y="485" text-anchor="middle" class="node-sub">H7CAD / CAD</text>
  <text x="455.0" y="503" text-anchor="middle" class="node-sub">稳定 JSON schema</text>
  <rect x="630" y="435" width="190" height="64" rx="10" fill="#ffffff" stroke="#fed7aa" stroke-width="1.5"/>
  <text x="725.0" y="463" text-anchor="middle" class="node-title">Writer 边界</text>
  <text x="725.0" y="485" text-anchor="middle" class="node-sub">passthrough-first</text>
  <text x="725.0" y="503" text-anchor="middle" class="node-sub">不做深层编辑</text>
  <rect x="900" y="435" width="190" height="64" rx="10" fill="#ffffff" stroke="#fed7aa" stroke-width="1.5"/>
  <text x="995.0" y="463" text-anchor="middle" class="node-title">W4 Publish DWG</text>
  <text x="995.0" y="485" text-anchor="middle" class="node-sub">loader enrich</text>
  <text x="995.0" y="503" text-anchor="middle" class="node-sub">branch parity</text>
  <rect x="90" y="585" width="190" height="54" rx="10" fill="#ffffff" stroke="#e9d5ff" stroke-width="1.5"/>
  <text x="185.0" y="613" text-anchor="middle" class="node-title">测试门禁</text>
  <text x="185.0" y="635" text-anchor="middle" class="node-sub">cargo test / clippy</text>
  <rect x="360" y="585" width="190" height="54" rx="10" fill="#ffffff" stroke="#e9d5ff" stroke-width="1.5"/>
  <text x="455.0" y="613" text-anchor="middle" class="node-title">Schema Golden</text>
  <text x="455.0" y="635" text-anchor="middle" class="node-sub">JSON contract</text>
  <rect x="630" y="585" width="190" height="54" rx="10" fill="#ffffff" stroke="#e9d5ff" stroke-width="1.5"/>
  <text x="725.0" y="613" text-anchor="middle" class="node-title">Publish Parity</text>
  <text x="725.0" y="635" text-anchor="middle" class="node-sub">Data / Meta XML</text>
  <rect x="900" y="585" width="190" height="54" rx="10" fill="#ffffff" stroke="#e9d5ff" stroke-width="1.5"/>
  <text x="995.0" y="613" text-anchor="middle" class="node-title">发布说明</text>
  <text x="995.0" y="635" text-anchor="middle" class="node-sub">能力边界 / GPL</text>
  <path d="M 280,167 L 360,167" fill="none" stroke="#2563eb" stroke-width="2" marker-end="url(#arrow-blue)"/>
  <rect x="274.0" y="145.0" width="92" height="20" rx="4" fill="#ffffff" opacity="0.95"/>
  <text x="320.0" y="159.0" text-anchor="middle" class="small">确认</text>
  <path d="M 550,167 L 630,167" fill="none" stroke="#2563eb" stroke-width="2" marker-end="url(#arrow-blue)"/>
  <rect x="544.0" y="145.0" width="92" height="20" rx="4" fill="#ffffff" opacity="0.95"/>
  <text x="590.0" y="159.0" text-anchor="middle" class="small">定位</text>
  <path d="M 820,167 L 900,167" fill="none" stroke="#2563eb" stroke-width="2" marker-end="url(#arrow-blue)"/>
  <rect x="814.0" y="145.0" width="92" height="20" rx="4" fill="#ffffff" opacity="0.95"/>
  <text x="860.0" y="159.0" text-anchor="middle" class="small">取舍</text>
  <path d="M 185,199 L 185,285" fill="none" stroke="#16a34a" stroke-width="2" marker-end="url(#arrow-green)"/>
  <rect x="139.0" y="220.0" width="92" height="20" rx="4" fill="#ffffff" opacity="0.95"/>
  <text x="185.0" y="234.0" text-anchor="middle" class="small">进入</text>
  <path d="M 455,199 L 455,285" fill="none" stroke="#16a34a" stroke-width="2" marker-end="url(#arrow-green)"/>
  <rect x="409.0" y="220.0" width="92" height="20" rx="4" fill="#ffffff" opacity="0.95"/>
  <text x="455.0" y="234.0" text-anchor="middle" class="small">度量</text>
  <path d="M 725,199 L 725,285" fill="none" stroke="#16a34a" stroke-width="2" marker-end="url(#arrow-green)"/>
  <rect x="679.0" y="220.0" width="92" height="20" rx="4" fill="#ffffff" opacity="0.95"/>
  <text x="725.0" y="234.0" text-anchor="middle" class="small">拆解</text>
  <path d="M 995,199 L 995,285" fill="none" stroke="#16a34a" stroke-width="2" marker-end="url(#arrow-green)"/>
  <rect x="949.0" y="220.0" width="92" height="20" rx="4" fill="#ffffff" opacity="0.95"/>
  <text x="995.0" y="234.0" text-anchor="middle" class="small">验收</text>
  <path d="M 280,317 L 360,317" fill="none" stroke="#2563eb" stroke-width="2" marker-end="url(#arrow-blue)"/>
  <rect x="274.0" y="295.0" width="92" height="20" rx="4" fill="#ffffff" opacity="0.95"/>
  <text x="320.0" y="309.0" text-anchor="middle" class="small">并行</text>
  <path d="M 550,317 L 630,317" fill="none" stroke="#16a34a" stroke-width="2" marker-end="url(#arrow-green)"/>
  <rect x="544.0" y="295.0" width="92" height="20" rx="4" fill="#ffffff" opacity="0.95"/>
  <text x="590.0" y="309.0" text-anchor="middle" class="small">证据</text>
  <path d="M 820,317 L 900,317" fill="none" stroke="#16a34a" stroke-width="2" marker-end="url(#arrow-green)"/>
  <rect x="814.0" y="295.0" width="92" height="20" rx="4" fill="#ffffff" opacity="0.95"/>
  <text x="860.0" y="309.0" text-anchor="middle" class="small">回归</text>
  <path d="M 185,349 L 185,435" fill="none" stroke="#ea580c" stroke-width="2" marker-end="url(#arrow-orange)"/>
  <rect x="139.0" y="370.0" width="92" height="20" rx="4" fill="#ffffff" opacity="0.95"/>
  <text x="185.0" y="384.0" text-anchor="middle" class="small">沉淀</text>
  <path d="M 455,349 L 455,435" fill="none" stroke="#ea580c" stroke-width="2" marker-end="url(#arrow-orange)"/>
  <rect x="409.0" y="370.0" width="92" height="20" rx="4" fill="#ffffff" opacity="0.95"/>
  <text x="455.0" y="384.0" text-anchor="middle" class="small">契约</text>
  <path d="M 725,349 L 725,435" fill="none" stroke="#ea580c" stroke-width="2" marker-end="url(#arrow-orange)"/>
  <rect x="679.0" y="370.0" width="92" height="20" rx="4" fill="#ffffff" opacity="0.95"/>
  <text x="725.0" y="384.0" text-anchor="middle" class="small">边界</text>
  <path d="M 995,349 L 995,435" fill="none" stroke="#ea580c" stroke-width="2" marker-end="url(#arrow-orange)"/>
  <rect x="949.0" y="370.0" width="92" height="20" rx="4" fill="#ffffff" opacity="0.95"/>
  <text x="995.0" y="384.0" text-anchor="middle" class="small">闭环</text>
  <path d="M 280,467 L 360,467" fill="none" stroke="#2563eb" stroke-width="2" marker-end="url(#arrow-blue)"/>
  <rect x="274.0" y="445.0" width="92" height="20" rx="4" fill="#ffffff" opacity="0.95"/>
  <text x="320.0" y="459.0" text-anchor="middle" class="small">输出</text>
  <path d="M 550,467 L 630,467" fill="none" stroke="#9333ea" stroke-width="2" marker-end="url(#arrow-purple)"/>
  <rect x="544.0" y="445.0" width="92" height="20" rx="4" fill="#ffffff" opacity="0.95"/>
  <text x="590.0" y="459.0" text-anchor="middle" class="small">约束</text>
  <path d="M 820,467 L 900,467" fill="none" stroke="#9333ea" stroke-width="2" marker-end="url(#arrow-purple)"/>
  <rect x="814.0" y="445.0" width="92" height="20" rx="4" fill="#ffffff" opacity="0.95"/>
  <text x="860.0" y="459.0" text-anchor="middle" class="small">独立</text>
  <path d="M 185,499 L 185,585" fill="none" stroke="#16a34a" stroke-width="2" marker-end="url(#arrow-green)"/>
  <rect x="139.0" y="520.0" width="92" height="20" rx="4" fill="#ffffff" opacity="0.95"/>
  <text x="185.0" y="534.0" text-anchor="middle" class="small">门禁</text>
  <path d="M 455,499 L 455,585" fill="none" stroke="#16a34a" stroke-width="2" marker-end="url(#arrow-green)"/>
  <rect x="409.0" y="520.0" width="92" height="20" rx="4" fill="#ffffff" opacity="0.95"/>
  <text x="455.0" y="534.0" text-anchor="middle" class="small">冻结</text>
  <path d="M 725,499 L 725,585" fill="none" stroke="#16a34a" stroke-width="2" marker-end="url(#arrow-green)"/>
  <rect x="679.0" y="520.0" width="92" height="20" rx="4" fill="#ffffff" opacity="0.95"/>
  <text x="725.0" y="534.0" text-anchor="middle" class="small">对齐</text>
  <path d="M 995,499 L 995,585" fill="none" stroke="#16a34a" stroke-width="2" marker-end="url(#arrow-green)"/>
  <rect x="949.0" y="520.0" width="92" height="20" rx="4" fill="#ffffff" opacity="0.95"/>
  <text x="995.0" y="534.0" text-anchor="middle" class="small">交付</text>
  <g transform="translate(70,690)">
    <line x1="0" y1="8" x2="36" y2="8" stroke="#2563eb" stroke-width="2" marker-end="url(#arrow-blue)"/>
    <text x="46" y="12" class="small">主流程</text>
    <line x1="150" y1="8" x2="36" y2="8" stroke="#16a34a" stroke-width="2" marker-end="url(#arrow-green)"/>
    <text x="196" y="12" class="small">验证/证据</text>
    <line x1="300" y1="8" x2="36" y2="8" stroke="#ea580c" stroke-width="2" marker-end="url(#arrow-orange)"/>
    <text x="346" y="12" class="small">沉淀/契约</text>
    <line x1="450" y1="8" x2="36" y2="8" stroke="#9333ea" stroke-width="2" marker-end="url(#arrow-purple)"/>
    <text x="496" y="12" class="small">边界/风险</text>
  </g>
</svg>