<svg xmlns="http://www.w3.org/2000/svg" viewBox="0 0 1200 780" width="1200" height="780" role="img" aria-labelledby="title desc">
  <title id="title">pid-parse current architecture</title>
  <desc id="desc">Layered architecture of pid-parse: inputs, public API, CFB container reader, semantic parsing, derived model, byte audit, writer, backup and publish pipelines.</desc>
  <style>
    text { font-family: 'Helvetica Neue', Helvetica, Arial, 'PingFang SC', 'Microsoft YaHei', sans-serif; }
    .title { fill: #111827; font-size: 24px; font-weight: 700; }
    .subtitle { fill: #6b7280; font-size: 13px; }
    .layer-label { fill: #374151; font-size: 11px; font-weight: 700; letter-spacing: 0.08em; }
    .node-title { fill: #111827; font-size: 14px; font-weight: 700; }
    .node-sub { fill: #4b5563; font-size: 11px; }
    .tiny { fill: #6b7280; font-size: 10px; }
    .legend { fill: #4b5563; font-size: 11px; }
  </style>
  <defs>
    <marker id="arrow-blue" markerWidth="10" markerHeight="7" refX="9" refY="3.5" orient="auto">
      <polygon points="0 0, 10 3.5, 0 7" fill="#2563eb"/>
    </marker>
    <marker id="arrow-green" markerWidth="10" markerHeight="7" refX="9" refY="3.5" orient="auto">
      <polygon points="0 0, 10 3.5, 0 7" fill="#16a34a"/>
    </marker>
    <marker id="arrow-orange" markerWidth="10" markerHeight="7" refX="9" refY="3.5" orient="auto">
      <polygon points="0 0, 10 3.5, 0 7" fill="#ea580c"/>
    </marker>
    <marker id="arrow-purple" markerWidth="10" markerHeight="7" refX="9" refY="3.5" orient="auto">
      <polygon points="0 0, 10 3.5, 0 7" fill="#7c3aed"/>
    </marker>
    <marker id="arrow-gray" markerWidth="10" markerHeight="7" refX="9" refY="3.5" orient="auto">
      <polygon points="0 0, 10 3.5, 0 7" fill="#6b7280"/>
    </marker>
    <filter id="soft-shadow" x="-10%" y="-10%" width="120%" height="130%">
      <feDropShadow dx="0" dy="3" stdDeviation="3" flood-color="#111827" flood-opacity="0.10"/>
    </filter>
  </defs>
  <rect width="1200" height="780" fill="#ffffff"/>
  <text x="40" y="44" class="title">pid-parse 当前架构图</text>
  <text x="40" y="66" class="subtitle">SmartPlant P&amp;ID .pid 解析、回写、审计与离线发布管线的最新分层视图</text>
  <rect x="30" y="86" width="170" height="610" rx="12" fill="#eff6ff" fill-opacity="0.55" stroke="#93c5fd" stroke-width="1.2" stroke-dasharray="7,5"/>
  <text x="44" y="106" class="layer-label">INPUTS</text>
  <rect x="220" y="86" width="220" height="610" rx="12" fill="#f0fdfa" fill-opacity="0.55" stroke="#5eead4" stroke-width="1.2" stroke-dasharray="7,5"/>
  <text x="234" y="106" class="layer-label">PUBLIC API</text>
  <rect x="465" y="86" width="260" height="610" rx="12" fill="#fff7ed" fill-opacity="0.55" stroke="#fdba74" stroke-width="1.2" stroke-dasharray="7,5"/>
  <text x="479" y="106" class="layer-label">CFB + SEMANTICS</text>
  <rect x="750" y="86" width="220" height="610" rx="12" fill="#f0fdf4" fill-opacity="0.55" stroke="#86efac" stroke-width="1.2" stroke-dasharray="7,5"/>
  <text x="764" y="106" class="layer-label">DERIVED MODEL</text>
  <rect x="995" y="86" width="175" height="610" rx="12" fill="#faf5ff" fill-opacity="0.55" stroke="#c4b5fd" stroke-width="1.2" stroke-dasharray="7,5"/>
  <text x="1009" y="106" class="layer-label">OUTPUTS</text>
  <path d="M 55,120 L 157,120 L 175,138 L 175,192 L 55,192 Z" fill="#eff6ff" stroke="#bfdbfe" stroke-width="1.5"/>
  <path d="M 157,120 L 157,138 L 175,138" fill="#dbeafe" stroke="#bfdbfe" stroke-width="1"/>
  <text x="115.0" y="146" text-anchor="middle" class="node-title">.pid / bytes</text>
  <text x="115.0" y="165" text-anchor="middle" class="node-sub">CFBF compound</text>
  <text x="115.0" y="180" text-anchor="middle" class="node-sub">raw streams</text>
  <rect x="55" y="235" width="120" height="72" rx="10" fill="#eff6ff" stroke="#bfdbfe" stroke-width="1.5"/>
  <text x="115.0" y="258" text-anchor="middle" class="node-title">Backup pkg</text>
  <text x="115.0" y="277" text-anchor="middle" class="node-sub">Manifest</text>
  <text x="115.0" y="292" text-anchor="middle" class="node-sub">PlantData/RefData</text>
  <rect x="55" y="350" width="120" height="72" rx="10" fill="#eff6ff" stroke="#bfdbfe" stroke-width="1.5"/>
  <text x="115.0" y="373" text-anchor="middle" class="node-title">Export.mdf</text>
  <text x="115.0" y="392" text-anchor="middle" class="node-sub">SQL Server MDF</text>
  <text x="115.0" y="407" text-anchor="middle" class="node-sub">publish source</text>
  <rect x="245" y="115" width="170" height="74" rx="10" fill="#f0fdfa" stroke="#5eead4" stroke-width="1.5" filter="url(#soft-shadow)"/>
  <text x="330.0" y="138" text-anchor="middle" class="node-title">PidParser</text>
  <text x="330.0" y="157" text-anchor="middle" class="node-sub">parse_file</text>
  <text x="330.0" y="172" text-anchor="middle" class="node-sub">parse_package</text>
  <rect x="245" y="230" width="170" height="82" rx="10" fill="#ccfbf1" stroke="#2dd4bf" stroke-width="1.5"/>
  <text x="330.0" y="253" text-anchor="middle" class="node-title">ParseOptions</text>
  <text x="330.0" y="272" text-anchor="middle" class="node-sub">Full: semantic model</text>
  <text x="330.0" y="287" text-anchor="middle" class="node-sub">Light: inventory/triage</text>
  <rect x="245" y="352" width="170" height="74" rx="10" fill="#f0fdfa" stroke="#5eead4" stroke-width="1.5"/>
  <text x="330.0" y="375" text-anchor="middle" class="node-title">PidPackage</text>
  <text x="330.0" y="394" text-anchor="middle" class="node-sub">raw bytes + parsed</text>
  <text x="330.0" y="409" text-anchor="middle" class="node-sub">writer input</text>
  <rect x="245" y="470" width="170" height="72" rx="10" fill="#f0fdfa" stroke="#5eead4" stroke-width="1.5"/>
  <text x="330.0" y="493" text-anchor="middle" class="node-title">Backup API</text>
  <text x="330.0" y="512" text-anchor="middle" class="node-sub">manifest/refdata</text>
  <text x="330.0" y="527" text-anchor="middle" class="node-sub">zip index / MTF</text>
  <rect x="245" y="585" width="170" height="72" rx="10" fill="#f0fdfa" stroke="#5eead4" stroke-width="1.5"/>
  <text x="330.0" y="608" text-anchor="middle" class="node-title">Publish API</text>
  <text x="330.0" y="627" text-anchor="middle" class="node-sub">MDF -> graph</text>
  <text x="330.0" y="642" text-anchor="middle" class="node-sub">_Data/_Meta XML</text>
  <rect x="495" y="110" width="200" height="74" rx="10" fill="#fff7ed" stroke="#fdba74" stroke-width="1.5" filter="url(#soft-shadow)"/>
  <text x="595.0" y="133" text-anchor="middle" class="node-title">CFB reader</text>
  <text x="595.0" y="152" text-anchor="middle" class="node-sub">tree, CLSID, times</text>
  <text x="595.0" y="167" text-anchor="middle" class="node-sub">state bits, streams</text>
  <rect x="495" y="215" width="200" height="92" rx="10" fill="#ffedd5" stroke="#fb923c" stroke-width="1.5"/>
  <text x="595.0" y="238" text-anchor="middle" class="node-title">Stream inventory</text>
  <text x="595.0" y="257" text-anchor="middle" class="node-sub">StreamEntry list</text>
  <text x="595.0" y="272" text-anchor="middle" class="node-sub">raw stream map</text>
  <text x="595.0" y="287" text-anchor="middle" class="node-sub">unknown diagnostics</text>
  <rect x="495" y="340" width="200" height="116" rx="10" fill="#fff7ed" stroke="#fdba74" stroke-width="1.5"/>
  <text x="595.0" y="363" text-anchor="middle" class="node-title">Semantic stream passes</text>
  <text x="595.0" y="382" text-anchor="middle" class="node-sub">summary / XML / JSite</text>
  <text x="595.0" y="397" text-anchor="middle" class="node-sub">clusters / DA / PSM</text>
  <text x="595.0" y="412" text-anchor="middle" class="node-sub">DocVersion / Sheet endpoints</text>
  <rect x="495" y="515" width="200" height="92" rx="10" fill="#fff7ed" stroke="#fdba74" stroke-width="1.5"/>
  <text x="595.0" y="538" text-anchor="middle" class="node-title">Parser utilities</text>
  <text x="595.0" y="557" text-anchor="middle" class="node-sub">nom + byte walkers</text>
  <text x="595.0" y="572" text-anchor="middle" class="node-sub">probe vs decode traces</text>
  <rect x="775" y="118" width="170" height="78" rx="10" fill="#f0fdf4" stroke="#86efac" stroke-width="1.5" filter="url(#soft-shadow)"/>
  <text x="860.0" y="141" text-anchor="middle" class="node-title">PidDocument</text>
  <text x="860.0" y="160" text-anchor="middle" class="node-sub">canonical model</text>
  <text x="860.0" y="175" text-anchor="middle" class="node-sub">streams + metadata</text>
  <rect x="775" y="250" width="170" height="96" rx="10" fill="#dcfce7" stroke="#4ade80" stroke-width="1.5"/>
  <text x="860.0" y="273" text-anchor="middle" class="node-title">Derived passes</text>
  <text x="860.0" y="292" text-anchor="middle" class="node-sub">object inventory/graph</text>
  <text x="860.0" y="307" text-anchor="middle" class="node-sub">crossref / layout</text>
  <text x="860.0" y="322" text-anchor="middle" class="node-sub">import view on demand</text>
  <rect x="775" y="392" width="170" height="96" rx="10" fill="#f0fdf4" stroke="#86efac" stroke-width="1.5"/>
  <text x="860.0" y="415" text-anchor="middle" class="node-title">Byte audit</text>
  <text x="860.0" y="434" text-anchor="middle" class="node-sub">_with_trace parsers</text>
  <text x="860.0" y="449" text-anchor="middle" class="node-sub">coverage + leftover</text>
  <text x="860.0" y="464" text-anchor="middle" class="node-sub">baseline diff</text>
  <rect x="775" y="548" width="170" height="88" rx="10" fill="#f0fdf4" stroke="#86efac" stroke-width="1.5"/>
  <text x="860.0" y="571" text-anchor="middle" class="node-title">Writer pipeline</text>
  <text x="860.0" y="590" text-anchor="middle" class="node-sub">metadata -> replace</text>
  <text x="860.0" y="605" text-anchor="middle" class="node-sub">sheet patches</text>
  <text x="860.0" y="620" text-anchor="middle" class="node-sub">CFB rebuild</text>
  <rect x="1015" y="125" width="130" height="72" rx="10" fill="#faf5ff" stroke="#c4b5fd" stroke-width="1.5"/>
  <text x="1080.0" y="148" text-anchor="middle" class="node-title">Read model</text>
  <text x="1080.0" y="167" text-anchor="middle" class="node-sub">PidDocument</text>
  <text x="1080.0" y="182" text-anchor="middle" class="node-sub">JSON/schema</text>
  <rect x="1015" y="263" width="130" height="72" rx="10" fill="#faf5ff" stroke="#c4b5fd" stroke-width="1.5"/>
  <text x="1080.0" y="286" text-anchor="middle" class="node-title">Inspect CLI</text>
  <text x="1080.0" y="305" text-anchor="middle" class="node-sub">reports</text>
  <text x="1080.0" y="320" text-anchor="middle" class="node-sub">Mermaid/diff</text>
  <rect x="1015" y="403" width="130" height="78" rx="10" fill="#faf5ff" stroke="#c4b5fd" stroke-width="1.5"/>
  <text x="1080.0" y="426" text-anchor="middle" class="node-title">Audit output</text>
  <text x="1080.0" y="445" text-anchor="middle" class="node-sub">ByteAuditReport</text>
  <text x="1080.0" y="460" text-anchor="middle" class="node-sub">CI regression</text>
  <rect x="1015" y="552" width="130" height="72" rx="10" fill="#faf5ff" stroke="#c4b5fd" stroke-width="1.5"/>
  <text x="1080.0" y="575" text-anchor="middle" class="node-title">Written .pid</text>
  <text x="1080.0" y="594" text-anchor="middle" class="node-sub">byte-preserving</text>
  <text x="1080.0" y="609" text-anchor="middle" class="node-sub">targeted edits</text>
  <path d="M 175,156 L 245,156" fill="none" stroke="#2563eb" stroke-width="2" marker-end="url(#arrow-blue)"/>
  <rect x="182.0" y="135" width="56" height="18" rx="4" fill="#ffffff" opacity="0.95"/>
  <text x="210" y="148" text-anchor="middle" class="tiny">.pid</text>
  <path d="M 415,152 L 495,152" fill="none" stroke="#2563eb" stroke-width="2" marker-end="url(#arrow-blue)"/>
  <rect x="421.5" y="131" width="67" height="18" rx="4" fill="#ffffff" opacity="0.95"/>
  <text x="455" y="144" text-anchor="middle" class="tiny">parse</text>
  <path d="M 595,184 L 595,215" fill="none" stroke="#2563eb" stroke-width="2" marker-end="url(#arrow-blue)"/>
  <path d="M 595,307 L 595,340" fill="none" stroke="#2563eb" stroke-width="2" marker-end="url(#arrow-blue)"/>
  <path d="M 695,388 L 775,156" fill="none" stroke="#2563eb" stroke-width="2" marker-end="url(#arrow-blue)"/>
  <rect x="696.0" y="237" width="78" height="18" rx="4" fill="#ffffff" opacity="0.95"/>
  <text x="735" y="250" text-anchor="middle" class="tiny">enrich</text>
  <path d="M 945,156 L 1015,161" fill="none" stroke="#2563eb" stroke-width="2" marker-end="url(#arrow-blue)"/>
  <rect x="941.0" y="137" width="78" height="18" rx="4" fill="#ffffff" opacity="0.95"/>
  <text x="980" y="150" text-anchor="middle" class="tiny">return</text>
  <path d="M 330,230 L 330,189 L 330,178 L 415,178" fill="none" stroke="#ea580c" stroke-width="2" marker-end="url(#arrow-orange)"/>
  <rect x="332.5" y="155" width="89" height="18" rx="4" fill="#ffffff" opacity="0.95"/>
  <text x="377" y="168" text-anchor="middle" class="tiny">options</text>
  <path d="M 415,270 L 495,270" fill="none" stroke="#ea580c" stroke-width="2" marker-end="url(#arrow-orange)"/>
  <rect x="394.0" y="247" width="122" height="18" rx="4" fill="#ffffff" opacity="0.95"/>
  <text x="455" y="260" text-anchor="middle" class="tiny">Full/Light</text>
  <path d="M 695,270 L 775,298" fill="none" stroke="#ea580c" stroke-width="2" marker-end="url(#arrow-orange)"/>
  <rect x="679.5" y="265" width="111" height="18" rx="4" fill="#ffffff" opacity="0.95"/>
  <text x="735" y="278" text-anchor="middle" class="tiny">Full only</text>
  <path d="M 595,307 L 595,380 L 415,380" fill="none" stroke="#16a34a" stroke-width="2" marker-end="url(#arrow-green)"/>
  <rect x="444.5" y="355" width="111" height="18" rx="4" fill="#ffffff" opacity="0.95"/>
  <text x="500" y="368" text-anchor="middle" class="tiny">raw bytes</text>
  <path d="M 415,389 L 775,432" fill="none" stroke="#16a34a" stroke-width="2" marker-end="url(#arrow-green)"/>
  <rect x="533.5" y="409" width="133" height="18" rx="4" fill="#ffffff" opacity="0.95"/>
  <text x="600" y="422" text-anchor="middle" class="tiny">audit input</text>
  <path d="M 945,432 L 1015,442" fill="none" stroke="#16a34a" stroke-width="2" marker-end="url(#arrow-green)"/>
  <rect x="943.0" y="413" width="78" height="18" rx="4" fill="#ffffff" opacity="0.95"/>
  <text x="982" y="426" text-anchor="middle" class="tiny">report</text>
  <path d="M 415,389 L 775,592" fill="none" stroke="#7c3aed" stroke-width="2" marker-end="url(#arrow-purple)"/>
  <rect x="551.5" y="547" width="111" height="18" rx="4" fill="#ffffff" opacity="0.95"/>
  <text x="607" y="560" text-anchor="middle" class="tiny">WritePlan</text>
  <path d="M 945,592 L 1015,588" fill="none" stroke="#7c3aed" stroke-width="2" marker-end="url(#arrow-purple)"/>
  <rect x="954.0" y="567" width="56" height="18" rx="4" fill="#ffffff" opacity="0.95"/>
  <text x="982" y="580" text-anchor="middle" class="tiny">emit</text>
  <path d="M 775,298 L 945,298 L 1015,299" fill="none" stroke="#2563eb" stroke-width="2" marker-end="url(#arrow-blue)"/>
  <rect x="943.0" y="275" width="78" height="18" rx="4" fill="#ffffff" opacity="0.95"/>
  <text x="982" y="288" text-anchor="middle" class="tiny">report</text>
  <path d="M 595,456 L 595,515" fill="none" stroke="#6b7280" stroke-width="2" marker-end="url(#arrow-gray)" stroke-dasharray="5,4"/>
  <rect x="580.5" y="477" width="89" height="18" rx="4" fill="#ffffff" opacity="0.95"/>
  <text x="625" y="490" text-anchor="middle" class="tiny">helpers</text>
  <path d="M 695,560 L 775,432" fill="none" stroke="#6b7280" stroke-width="2" marker-end="url(#arrow-gray)" stroke-dasharray="5,4"/>
  <rect x="701.5" y="487" width="67" height="18" rx="4" fill="#ffffff" opacity="0.95"/>
  <text x="735" y="500" text-anchor="middle" class="tiny">trace</text>
  <path d="M 175,271 L 245,506" fill="none" stroke="#6b7280" stroke-width="2" marker-end="url(#arrow-gray)" stroke-dasharray="5,4"/>
  <rect x="166.0" y="377" width="78" height="18" rx="4" fill="#ffffff" opacity="0.95"/>
  <text x="205" y="390" text-anchor="middle" class="tiny">backup</text>
  <path d="M 175,386 L 245,621" fill="none" stroke="#6b7280" stroke-width="2" marker-end="url(#arrow-gray)" stroke-dasharray="5,4"/>
  <rect x="160.5" y="492" width="89" height="18" rx="4" fill="#ffffff" opacity="0.95"/>
  <text x="205" y="505" text-anchor="middle" class="tiny">publish</text>
  <path d="M 415,506 L 495,560" fill="none" stroke="#6b7280" stroke-width="2" marker-end="url(#arrow-gray)" stroke-dasharray="5,4"/>
  <rect x="410.5" y="512" width="89" height="18" rx="4" fill="#ffffff" opacity="0.95"/>
  <text x="455" y="525" text-anchor="middle" class="tiny">RefData</text>
  <path d="M 415,621 L 1015,621" fill="none" stroke="#6b7280" stroke-width="2" marker-end="url(#arrow-gray)" stroke-dasharray="5,4"/>
  <rect x="653.5" y="629" width="133" height="18" rx="4" fill="#ffffff" opacity="0.95"/>
  <text x="720" y="642" text-anchor="middle" class="tiny">_Data/_Meta</text>
  <rect x="40" y="710" width="1120" height="48" rx="10" fill="#f9fafb" stroke="#e5e7eb"/>
  <text x="58" y="732" class="node-sub">核心原则：容器优先、原始字节保留、Probe 与 Decode 分离、Full/Light 成本分层、writer 使用声明式 WritePlan 并保持未知流 passthrough。</text>
  <text x="58" y="750" class="tiny">蓝色=读取主路径，橙色=解析选项控制，绿色=审计/原始字节，紫色=写回，灰色虚线=辅助/离线管线。</text>
  <g transform="translate(930, 30)">
    <path d="M 0,0 L 34,0" stroke="#2563eb" stroke-width="2" marker-end="url(#arrow-blue)"/>
    <text x="44" y="4" class="legend">read path</text>
    <path d="M 0,17 L 34,17" stroke="#ea580c" stroke-width="2" marker-end="url(#arrow-orange)"/>
    <text x="44" y="21" class="legend">profile control</text>
    <path d="M 0,34 L 34,34" stroke="#16a34a" stroke-width="2" marker-end="url(#arrow-green)"/>
    <text x="44" y="38" class="legend">raw/audit</text>
    <path d="M 0,51 L 34,51" stroke="#7c3aed" stroke-width="2" marker-end="url(#arrow-purple)"/>
    <text x="44" y="55" class="legend">write path</text>
    <path d="M 0,68 L 34,68" stroke="#6b7280" stroke-width="2" marker-end="url(#arrow-gray)" stroke-dasharray="5,4"/>
    <text x="44" y="72" class="legend">support/offline</text>
  </g>
</svg>