<?xml version="1.0" encoding="UTF-8"?>
<svg xmlns="http://www.w3.org/2000/svg" viewBox="0 0 960 920">
  <style>text { font-family: "Segoe UI", Arial, sans-serif; }</style>
  <defs>
    <marker id="arrow" markerWidth="10" markerHeight="7" refX="10" refY="3.5" orient="auto">
      <polygon points="0 0, 10 3.5, 0 7" fill="#2563eb"/></marker>
    <marker id="arrow-green" markerWidth="10" markerHeight="7" refX="10" refY="3.5" orient="auto">
      <polygon points="0 0, 10 3.5, 0 7" fill="#059669"/></marker>
    <filter id="shadow"><feDropShadow dx="1" dy="2" stdDeviation="2" flood-opacity="0.12"/></filter>
  </defs>
  <rect width="960" height="920" fill="#ffffff"/>
  <text x="480" y="36" text-anchor="middle" font-size="20" font-weight="bold" fill="#1e293b">pid-parse MDF Publish Pipeline Architecture</text>
  <rect x="360" y="56" width="240" height="48" rx="8" fill="#dbeafe" stroke="#2563eb" stroke-width="1.5" filter="url(#shadow)"/>
  <text x="480" y="84" text-anchor="middle" font-size="14" font-weight="bold" fill="#1e3a5f">Export.mdf</text>
  <line x1="480" y1="104" x2="480" y2="136" stroke="#2563eb" stroke-width="2" marker-end="url(#arrow)"/>
  <rect x="40" y="136" width="880" height="560" rx="12" fill="none" stroke="#94a3b8" stroke-width="1" stroke-dasharray="6,3"/>
  <text x="60" y="156" font-size="12" fill="#64748b" font-style="italic">vendor/oxidized-mdf (GPL-3.0, sync, panic-free, nom 8)</text>
  <rect x="320" y="168" width="320" height="52" rx="8" fill="#e0e7ff" stroke="#4f46e5" stroke-width="1.5" filter="url(#shadow)"/>
  <text x="480" y="190" text-anchor="middle" font-size="13" font-weight="bold" fill="#312e81">PageReader</text>
  <text x="480" y="206" text-anchor="middle" font-size="11" fill="#6366f1">read_exact() | 8192 bytes/page | forward-only</text>
  <line x1="480" y1="220" x2="480" y2="248" stroke="#2563eb" stroke-width="2" marker-end="url(#arrow)"/>
  <rect x="200" y="248" width="560" height="52" rx="8" fill="#fef3c7" stroke="#d97706" stroke-width="1.5" filter="url(#shadow)"/>
  <text x="480" y="270" text-anchor="middle" font-size="13" font-weight="bold" fill="#92400e">Page Parsing (nom 8 take helpers)</text>
  <text x="480" y="286" text-anchor="middle" font-size="11" fill="#b45309">PageHeader | slot directory | Record envelope | VariableColumns cursor</text>
  <line x1="480" y1="300" x2="480" y2="328" stroke="#2563eb" stroke-width="2" marker-end="url(#arrow)"/>
  <rect x="80" y="328" width="380" height="72" rx="8" fill="#dcfce7" stroke="#059669" stroke-width="1.5" filter="url(#shadow)"/>
  <text x="270" y="352" text-anchor="middle" font-size="13" font-weight="bold" fill="#064e3b">Fixed-Length Fields</text>
  <text x="270" y="368" text-anchor="middle" font-size="11" fill="#047857">from_le_bytes: i8/i16/i32/i64/f32/f64/u128</text>
  <text x="270" y="384" text-anchor="middle" font-size="11" fill="#047857">decimal | datetime | smalldatetime | date | uuid</text>
  <rect x="500" y="328" width="380" height="72" rx="8" fill="#fce7f3" stroke="#db2777" stroke-width="1.5" filter="url(#shadow)"/>
  <text x="690" y="352" text-anchor="middle" font-size="13" font-weight="bold" fill="#831843">Variable-Length Columns</text>
  <text x="690" y="368" text-anchor="middle" font-size="11" fill="#9d174d">nvarchar | varchar | sysname | text | ntext</text>
  <text x="690" y="384" text-anchor="middle" font-size="11" fill="#9d174d">varbinary | image | binary | Result propagation</text>
  <line x1="270" y1="400" x2="420" y2="428" stroke="#2563eb" stroke-width="1.5" marker-end="url(#arrow)"/>
  <line x1="690" y1="400" x2="540" y2="428" stroke="#2563eb" stroke-width="1.5" marker-end="url(#arrow)"/>
  <rect x="300" y="428" width="360" height="52" rx="8" fill="#f3e8ff" stroke="#7c3aed" stroke-width="1.5" filter="url(#shadow)"/>
  <text x="480" y="450" text-anchor="middle" font-size="13" font-weight="bold" fill="#5b21b6">Value (27 SQL Server types)</text>
  <text x="480" y="466" text-anchor="middle" font-size="11" fill="#6d28d9">Bit | Int | Float | Decimal | String | DateTime | Uuid | Binary | Null</text>
  <line x1="400" y1="480" x2="240" y2="520" stroke="#059669" stroke-width="1.5" marker-end="url(#arrow-green)"/>
  <line x1="560" y1="480" x2="680" y2="520" stroke="#2563eb" stroke-width="2" marker-end="url(#arrow)"/>
  <rect x="80" y="520" width="320" height="68" rx="8" fill="#fff7ed" stroke="#ea580c" stroke-width="1.5" filter="url(#shadow)"/>
  <text x="240" y="544" text-anchor="middle" font-size="13" font-weight="bold" fill="#9a3412">System Tables (sys.rs)</text>
  <text x="240" y="560" text-anchor="middle" font-size="11" fill="#c2410c">sysallocunit | sysrowset | sysschobj</text>
  <text x="240" y="576" text-anchor="middle" font-size="11" fill="#c2410c">syscolpar | sysscalartype</text>
  <rect x="520" y="520" width="320" height="48" rx="8" fill="#e0e7ff" stroke="#4f46e5" stroke-width="1.5" filter="url(#shadow)"/>
  <text x="680" y="540" text-anchor="middle" font-size="13" font-weight="bold" fill="#312e81">MdfDatabase::rows()</text>
  <text x="680" y="556" text-anchor="middle" font-size="11" fill="#4338ca">Iterator&lt;Item = Row&gt; | sync API</text>
  <path d="M 400,554 C 440,554 440,544 520,544" stroke="#059669" stroke-width="1.5" fill="none" stroke-dasharray="5,3" marker-end="url(#arrow-green)"/>
  <rect x="418" y="540" width="64" height="16" fill="#ffffff" opacity="0.95"/>
  <text x="450" y="552" text-anchor="middle" font-size="10" fill="#059669">metadata</text>
  <rect x="520" y="608" width="320" height="68" rx="8" fill="#dbeafe" stroke="#2563eb" stroke-width="1.5" filter="url(#shadow)"/>
  <text x="680" y="632" text-anchor="middle" font-size="13" font-weight="bold" fill="#1e3a5f">mdf_load.rs</text>
  <text x="680" y="648" text-anchor="middle" font-size="11" fill="#2563eb">Stage 24 SmartPlant tables to in-memory SQLite</text>
  <text x="680" y="664" text-anchor="middle" font-size="11" fill="#2563eb">Re-open per table (forward-only constraint)</text>
  <line x1="680" y1="568" x2="680" y2="608" stroke="#2563eb" stroke-width="2" marker-end="url(#arrow)"/>
  <line x1="680" y1="676" x2="480" y2="728" stroke="#2563eb" stroke-width="2" marker-end="url(#arrow)"/>
  <rect x="320" y="728" width="320" height="52" rx="8" fill="#e0f2fe" stroke="#0284c7" stroke-width="1.5" filter="url(#shadow)"/>
  <text x="480" y="750" text-anchor="middle" font-size="13" font-weight="bold" fill="#0c4a6e">sqlite_load.rs</text>
  <text x="480" y="766" text-anchor="middle" font-size="11" fill="#0369a1">SQL queries &#x2192; PublishDrawing DTO</text>
  <line x1="480" y1="780" x2="480" y2="808" stroke="#2563eb" stroke-width="2" marker-end="url(#arrow)"/>
  <rect x="320" y="808" width="320" height="52" rx="8" fill="#fef3c7" stroke="#d97706" stroke-width="1.5" filter="url(#shadow)"/>
  <text x="480" y="830" text-anchor="middle" font-size="13" font-weight="bold" fill="#92400e">xml_writer.rs</text>
  <text x="480" y="846" text-anchor="middle" font-size="11" fill="#b45309">DTO &#x2192; _Data.xml + _Meta.xml</text>
  <line x1="400" y1="860" x2="300" y2="886" stroke="#2563eb" stroke-width="1.5" marker-end="url(#arrow)"/>
  <line x1="560" y1="860" x2="660" y2="886" stroke="#2563eb" stroke-width="1.5" marker-end="url(#arrow)"/>
  <rect x="200" y="884" width="160" height="28" rx="6" fill="#dcfce7" stroke="#059669" stroke-width="1"/>
  <text x="280" y="903" text-anchor="middle" font-size="12" font-weight="bold" fill="#064e3b">_Data.xml</text>
  <rect x="600" y="884" width="160" height="28" rx="6" fill="#dcfce7" stroke="#059669" stroke-width="1"/>
  <text x="680" y="903" text-anchor="middle" font-size="12" font-weight="bold" fill="#064e3b">_Meta.xml</text>
  <rect x="60" y="740" width="200" height="80" rx="6" fill="#f8fafc" stroke="#e2e8f0" stroke-width="1"/>
  <text x="70" y="758" font-size="11" font-weight="bold" fill="#475569">Legend</text>
  <line x1="70" y1="772" x2="100" y2="772" stroke="#2563eb" stroke-width="2" marker-end="url(#arrow)"/>
  <text x="108" y="776" font-size="10" fill="#475569">Data flow</text>
  <line x1="70" y1="792" x2="100" y2="792" stroke="#059669" stroke-width="1.5" stroke-dasharray="5,3" marker-end="url(#arrow-green)"/>
  <text x="108" y="796" font-size="10" fill="#475569">Metadata feed</text>
  <rect x="70" y="804" width="30" height="10" rx="2" fill="none" stroke="#94a3b8" stroke-width="1" stroke-dasharray="4,2"/>
  <text x="108" y="814" font-size="10" fill="#475569">Module boundary</text>
</svg>